<?xml version="1.0" standalone="no"?>
<!DOCTYPE svg PUBLIC "-//W3C//DTD SVG 20010904//EN"
 "http://www.w3.org/TR/2001/REC-SVG-20010904/DTD/svg10.dtd">
<svg version="1.0" xmlns="http://www.w3.org/2000/svg"
 width="1024.000000pt" height="1024.000000pt" viewBox="0 0 1024.000000 1024.000000"
 preserveAspectRatio="xMidYMid meet">
<metadata>
Created by potrace 1.14, written by Peter Selinger 2001-2017
</metadata>
<g transform="translate(0.000000,1024.000000) scale(0.100000,-0.100000)"
fill="#000000" stroke="none">
<path d="M4805 10234 c-22 -2 -96 -8 -165 -14 -1258 -107 -2480 -724 -3338
-1685 -674 -755 -1106 -1677 -1251 -2670 -39 -272 -46 -382 -46 -745 0 -362 7
-472 46 -745 323 -2229 2095 -4001 4324 -4324 273 -39 383 -46 745 -46 362 0
472 7 745 46 2229 323 4001 2095 4324 4324 39 273 46 383 46 745 0 362 -7 472
-46 745 -206 1418 -1013 2700 -2205 3502 -707 475 -1466 752 -2324 848 -136
16 -750 29 -855 19z m-465 -2649 l0 -655 510 0 510 0 0 -565 0 -565 -510 0
-510 0 0 -1382 c0 -1501 -1 -1458 55 -1571 100 -200 346 -268 719 -197 59 12
109 20 111 18 10 -12 234 -1113 227 -1120 -14 -14 -350 -94 -472 -113 -151
-23 -576 -32 -732 -16 -435 46 -780 192 -1022 435 -223 224 -346 496 -386 851
-6 56 -10 654 -10 1593 l0 1502 -375 0 -375 0 0 565 0 565 375 0 375 0 0 655
0 655 755 0 755 0 0 -655z m3064 -4520 c303 -63 567 -311 647 -611 30 -111 31
-316 1 -425 -57 -211 -205 -405 -398 -521 -177 -107 -372 -140 -590 -103 -300
53 -568 296 -655 597 -30 105 -37 297 -15 409 64 316 330 585 645 653 89 19
274 20 365 1z"/>
</g>
</svg>
